<svg width="970" height="615" viewBox="0 0 970 615" fill="none" xmlns="http://www.w3.org/2000/svg">
<path d="M426.195 79.151C423.716 74.5428 420.235 70.6106 416.035 67.673C411.834 64.7354 407.032 62.8748 402.017 62.242C397.002 61.6091 391.916 62.2218 387.169 64.0303C382.422 65.8389 378.149 68.7925 374.695 72.652C371.241 76.5115 368.704 81.1685 367.289 86.2458C365.873 91.3231 365.62 96.678 366.548 101.877C367.477 107.076 369.562 111.973 372.634 116.171C375.707 120.37 379.68 123.751 384.233 126.043L390.229 112.979C387.636 111.674 385.372 109.747 383.622 107.355C381.871 104.964 380.684 102.174 380.155 99.212C379.625 96.2502 379.77 93.1995 380.576 90.3069C381.382 87.4144 382.828 84.7614 384.796 82.5626C386.763 80.3638 389.198 78.6812 391.902 77.6508C394.606 76.6205 397.504 76.2715 400.361 76.632C403.218 76.9925 405.954 78.0525 408.347 79.7261C410.74 81.3996 412.723 83.6397 414.135 86.2651L426.195 79.151Z" fill="#6070FF"/>
<path d="M120.96 515.253C122.875 512.247 124.227 508.69 124.904 504.869C125.582 501.047 125.567 497.07 124.861 493.257C124.154 489.445 122.776 485.905 120.838 482.925C118.9 479.945 116.457 477.608 113.706 476.103C110.955 474.598 107.973 473.968 105.003 474.263C102.032 474.559 99.1561 475.771 96.6076 477.803C94.0591 479.835 91.9097 482.629 90.3333 485.959C88.757 489.289 87.798 493.061 87.5341 496.969L95.6653 497.922C95.8157 495.695 96.362 493.546 97.26 491.649C98.1581 489.752 99.3826 488.161 100.834 487.003C102.286 485.846 103.925 485.155 105.617 484.986C107.309 484.818 109.008 485.177 110.575 486.034C112.143 486.892 113.535 488.223 114.639 489.921C115.743 491.619 116.528 493.635 116.93 495.807C117.333 497.979 117.341 500.245 116.955 502.422C116.569 504.599 115.799 506.626 114.708 508.338L120.96 515.253Z" fill="#EBEBFF"/>
<rect width="68.3233" height="16.5883" transform="matrix(0.795947 -0.605366 0.401413 0.915897 347 72.3606)" fill="#EBEBFF"/>
<rect width="68.048" height="19.5472" transform="matrix(0.869366 0.494168 -0.311281 0.950318 325.084 462)" fill="#EBEBFF"/>
<rect width="38.1373" height="9.62333" transform="matrix(0.961727 -0.274011 -0.162014 -0.986789 225.559 68.9462)" fill="#6070FF"/>
<path d="M365.92 461.669C365.92 469.77 360.565 476.337 353.96 476.337C347.355 476.337 342 469.77 342 461.669C342 453.567 347.355 447 353.96 447C360.565 447 365.92 453.567 365.92 461.669Z" fill="#6070FF"/>
<path d="M969.5 574.254C969.5 585.406 966.068 595.484 960.542 602.763C955.017 610.042 947.42 614.5 939.069 614.5C930.717 614.5 923.121 610.042 917.595 602.763C912.07 595.484 908.638 585.406 908.638 574.254C908.638 563.101 912.07 553.023 917.595 545.744C923.121 538.465 930.717 534.007 939.069 534.007C947.42 534.007 955.017 538.465 960.542 545.744C966.068 553.023 969.5 563.101 969.5 574.254Z" fill="white" stroke="#EBEBFF"/>
<path d="M767.416 21.1882C767.416 15.4364 765.646 10.2479 762.807 6.50821C759.969 2.76888 756.084 0.500019 751.832 0.500019C747.581 0.500019 743.696 2.76888 740.857 6.50821C738.018 10.2479 736.248 15.4364 736.248 21.1882C736.248 26.94 738.018 32.1285 740.857 35.8682C743.696 39.6075 747.581 41.8763 751.832 41.8763C756.084 41.8763 759.969 39.6075 762.807 35.8682C765.646 32.1285 767.416 26.94 767.416 21.1882Z" fill="white" stroke="#EBEBFF"/>
<path d="M264.27 21.1881C264.27 21.688 264.143 22.4805 263.893 23.5149C263.645 24.5388 263.286 25.7661 262.842 27.1205C261.955 29.8288 260.734 33.0251 259.407 36.0827C258.078 39.1428 256.649 42.0489 255.346 44.183C254.693 45.2522 254.083 46.1094 253.543 46.6932C253.273 46.9852 253.034 47.1951 252.828 47.329C252.618 47.4654 252.478 47.5 252.398 47.5C252.309 47.5 252.105 47.4395 251.885 46.856C251.677 46.3057 251.534 45.4744 251.455 44.4066C251.298 42.2828 251.402 39.3836 251.615 36.3165C251.816 33.4306 252.111 30.419 252.368 27.7992C252.384 27.6396 252.4 27.4815 252.415 27.325C252.68 24.615 252.898 22.3444 252.898 21.1881C252.898 19.0369 253.56 17.1081 254.608 15.728C255.655 14.3483 257.066 13.5388 258.584 13.5388C260.102 13.5388 261.513 14.3483 262.56 15.728C263.608 17.1081 264.27 19.0369 264.27 21.1881Z" fill="white" stroke="#EBEBFF"/>
<path d="M18.4711 402.575C18.4711 399.224 17.4393 396.208 15.7946 394.042C14.1501 391.875 11.9148 390.58 9.48554 390.58C7.05625 390.58 4.82095 391.875 3.1765 394.042C1.53179 396.208 0.5 399.224 0.5 402.575C0.5 405.927 1.53179 408.942 3.1765 411.108C4.82095 413.275 7.05625 414.571 9.48554 414.571C11.9148 414.571 14.1501 413.275 15.7946 411.108C17.4393 408.942 18.4711 405.927 18.4711 402.575Z" fill="white" stroke="#EBEBFF"/>
<path d="M98.0401 453C97.7643 458.304 99.0992 463.535 101.751 467.542C104.403 471.549 108.155 474.005 112.181 474.368C116.207 474.731 120.178 472.973 123.22 469.479C126.262 465.986 128.126 461.044 128.402 455.74L98.0401 453Z" fill="#6070FF"/>
</svg>
