<svg width="970" height="615" viewBox="0 0 970 615" fill="none" xmlns="http://www.w3.org/2000/svg">
<path d="M444.195 71.151C441.716 66.5428 438.235 62.6106 434.035 59.673C429.834 56.7354 425.032 54.8748 420.017 54.242C415.002 53.6091 409.916 54.2218 405.169 56.0303C400.422 57.8389 396.149 60.7925 392.695 64.652C389.241 68.5115 386.704 73.1685 385.289 78.2458C383.873 83.3231 383.62 88.678 384.548 93.877C385.477 99.076 387.562 103.973 390.634 108.171C393.707 112.37 397.68 115.751 402.233 118.043L408.229 104.979C405.636 103.674 403.372 101.747 401.622 99.3554C399.871 96.9636 398.684 94.1739 398.155 91.212C397.625 88.2502 397.77 85.1995 398.576 82.3069C399.382 79.4144 400.828 76.7614 402.796 74.5626C404.763 72.3638 407.198 70.6812 409.902 69.6508C412.606 68.6205 415.504 68.2715 418.361 68.632C421.218 68.9925 423.954 70.0525 426.347 71.7261C428.74 73.3996 430.723 75.6397 432.135 78.2651L444.195 71.151Z" fill="#6070FF"/>
<path d="M120.96 515.253C122.875 512.247 124.227 508.69 124.904 504.869C125.582 501.047 125.567 497.07 124.861 493.257C124.154 489.445 122.776 485.905 120.838 482.925C118.9 479.945 116.457 477.608 113.706 476.103C110.955 474.598 107.973 473.968 105.003 474.263C102.032 474.559 99.1561 475.771 96.6076 477.803C94.0591 479.835 91.9097 482.629 90.3333 485.959C88.757 489.289 87.798 493.061 87.5341 496.969L95.6653 497.922C95.8157 495.695 96.362 493.546 97.26 491.649C98.1581 489.752 99.3826 488.161 100.834 487.003C102.286 485.846 103.925 485.155 105.617 484.986C107.309 484.818 109.008 485.177 110.575 486.034C112.143 486.892 113.535 488.223 114.639 489.921C115.743 491.619 116.528 493.635 116.93 495.807C117.333 497.979 117.341 500.245 116.955 502.422C116.569 504.599 115.799 506.626 114.708 508.338L120.96 515.253Z" fill="#EBEBFF"/>
<rect width="68.3233" height="16.5883" transform="matrix(0.795947 -0.605366 0.401413 0.915897 366 58.3606)" fill="#EBEBFF"/>
<rect width="68.048" height="19.5472" transform="matrix(0.869366 0.494168 -0.311281 0.950318 325.084 462)" fill="#EBEBFF"/>
<rect width="38.1373" height="9.62333" transform="matrix(0.961727 -0.274011 -0.162014 -0.986789 241.559 53.9462)" fill="#6070FF"/>
<path d="M365.92 461.669C365.92 469.77 360.565 476.337 353.96 476.337C347.355 476.337 342 469.77 342 461.669C342 453.567 347.355 447 353.96 447C360.565 447 365.92 453.567 365.92 461.669Z" fill="#6070FF"/>
<path d="M267.672 66.4956C267.672 73.3967 263.425 78.9912 258.186 78.9912C252.948 78.9912 252 73.3967 252 66.4956C252 59.5945 252.948 54 258.186 54C263.425 54 267.672 59.5945 267.672 66.4956Z" fill="#EBEBFF"/>
<path d="M969.5 574.254C969.5 585.406 966.068 595.484 960.542 602.763C955.017 610.042 947.42 614.5 939.069 614.5C930.717 614.5 923.121 610.042 917.595 602.763C912.07 595.484 908.638 585.406 908.638 574.254C908.638 563.101 912.07 553.023 917.595 545.744C923.121 538.465 930.717 534.007 939.069 534.007C947.42 534.007 955.017 538.465 960.542 545.744C966.068 553.023 969.5 563.101 969.5 574.254Z" fill="white" stroke="#EBEBFF"/>
<path d="M767.416 21.1882C767.416 15.4364 765.646 10.2479 762.807 6.50821C759.969 2.76888 756.084 0.500019 751.832 0.500019C747.581 0.500019 743.696 2.76888 740.857 6.50821C738.018 10.2479 736.248 15.4364 736.248 21.1882C736.248 26.94 738.018 32.1285 740.857 35.8682C743.696 39.6075 747.581 41.8763 751.832 41.8763C756.084 41.8763 759.969 39.6075 762.807 35.8682C765.646 32.1285 767.416 26.94 767.416 21.1882Z" fill="white" stroke="#EBEBFF"/>
<path d="M264.27 21.1881C264.27 23.3393 263.608 25.2681 262.56 26.6482C261.513 28.028 260.102 28.8374 258.584 28.8374C257.066 28.8374 255.655 28.028 254.608 26.6482C253.56 25.2681 252.898 23.3393 252.898 21.1881C252.898 19.0369 253.56 17.1081 254.608 15.728C255.655 14.3483 257.066 13.5388 258.584 13.5388C260.102 13.5388 261.513 14.3483 262.56 15.728C263.608 17.1081 264.27 19.0369 264.27 21.1881Z" fill="white" stroke="#EBEBFF"/>
<path d="M18.4711 402.575C18.4711 399.224 17.4393 396.208 15.7946 394.042C14.1501 391.875 11.9148 390.58 9.48554 390.58C7.05625 390.58 4.82095 391.875 3.1765 394.042C1.53179 396.208 0.5 399.224 0.5 402.575C0.5 405.927 1.53179 408.942 3.1765 411.108C4.82095 413.275 7.05625 414.571 9.48554 414.571C11.9148 414.571 14.1501 413.275 15.7946 411.108C17.4393 408.942 18.4711 405.927 18.4711 402.575Z" fill="white" stroke="#EBEBFF"/>
<path d="M98.0401 453C97.7643 458.304 99.0992 463.535 101.751 467.542C104.403 471.549 108.155 474.005 112.181 474.368C116.207 474.731 120.178 472.973 123.22 469.479C126.262 465.986 128.126 461.044 128.402 455.74L98.0401 453Z" fill="#6070FF"/>
</svg>
