<svg width="970" height="615" viewBox="0 0 970 615" fill="none" xmlns="http://www.w3.org/2000/svg">
<path d="M489.932 126.895C487.452 122.287 483.972 118.354 479.771 115.417C475.571 112.479 470.769 110.619 465.754 109.986C460.739 109.353 455.652 109.966 450.905 111.774C446.158 113.583 441.885 116.536 438.431 120.396C434.978 124.255 432.44 128.912 431.025 133.99C429.61 139.067 429.356 144.422 430.285 149.621C431.213 154.82 433.298 159.717 436.371 163.915C439.443 168.113 443.416 171.495 447.969 173.786L453.965 160.723C451.372 159.418 449.108 157.491 447.358 155.099C445.608 152.707 444.42 149.918 443.891 146.956C443.362 143.994 443.506 140.943 444.313 138.051C445.119 135.158 446.564 132.505 448.532 130.306C450.5 128.108 452.934 126.425 455.638 125.395C458.343 124.364 461.24 124.015 464.097 124.376C466.954 124.736 469.69 125.796 472.083 127.47C474.476 129.143 476.459 131.384 477.872 134.009L489.932 126.895Z" fill="#6070FF"/>
<path d="M220.423 569.807C222.338 566.802 223.689 563.245 224.367 559.423C225.045 555.602 225.03 551.624 224.324 547.812C223.617 544 222.239 540.46 220.301 537.48C218.363 534.5 215.92 532.162 213.169 530.657C210.417 529.153 207.436 528.522 204.465 528.818C201.495 529.113 198.619 530.326 196.071 532.358C193.522 534.39 191.373 537.184 189.796 540.513C188.22 543.843 187.261 547.615 186.997 551.524L195.128 552.477C195.279 550.25 195.825 548.101 196.723 546.204C197.621 544.307 198.845 542.715 200.297 541.558C201.749 540.4 203.388 539.709 205.08 539.541C206.772 539.373 208.471 539.732 210.038 540.589C211.605 541.446 212.998 542.778 214.102 544.476C215.206 546.174 215.991 548.19 216.393 550.362C216.795 552.534 216.804 554.8 216.418 556.977C216.032 559.154 215.262 561.181 214.171 562.893L220.423 569.807Z" fill="#EBEBFF"/>
<rect width="68.3233" height="16.5883" transform="matrix(0.795947 -0.605366 0.401413 0.915897 400.867 128.286)" fill="#EBEBFF"/>
<rect width="68.048" height="19.5472" transform="matrix(0.869366 0.494168 -0.311281 0.950318 340.141 499.823)" fill="#EBEBFF"/>
<rect width="38.1373" height="6.48816" transform="matrix(0.961727 -0.274011 -0.162014 -0.986789 282.318 119.233)" fill="#6070FF"/>
<rect width="41.4139" height="14.8846" transform="matrix(0.589322 -0.807898 0.619889 0.78469 128.588 125.771)" fill="#EBEBFF"/>
<path d="M390.969 506.886C390.969 514.987 385.615 521.555 379.009 521.555C372.404 521.555 367.049 514.987 367.049 506.886C367.049 498.785 372.404 492.217 379.009 492.217C385.615 492.217 390.969 498.785 390.969 506.886Z" fill="#6070FF"/>
<path d="M319.209 126.586C319.209 133.487 314.963 139.081 309.724 139.081C304.485 139.081 303.538 133.487 303.538 126.586C303.538 119.685 304.485 114.09 309.724 114.09C314.963 114.09 319.209 119.685 319.209 126.586Z" fill="#EBEBFF"/>
<path d="M969.5 574.254C969.5 585.406 966.068 595.484 960.542 602.763C955.017 610.042 947.42 614.5 939.069 614.5C930.717 614.5 923.121 610.042 917.595 602.763C912.07 595.484 908.638 585.406 908.638 574.254C908.638 563.101 912.07 553.023 917.595 545.744C923.121 538.465 930.717 534.007 939.069 534.007C947.42 534.007 955.017 538.465 960.542 545.744C966.068 553.023 969.5 563.101 969.5 574.254Z" fill="white" stroke="#EBEBFF"/>
<path d="M767.416 21.1882C767.416 15.4364 765.646 10.2479 762.807 6.50821C759.969 2.76888 756.084 0.500019 751.832 0.500019C747.581 0.500019 743.696 2.76888 740.857 6.50821C738.018 10.2479 736.248 15.4364 736.248 21.1882C736.248 26.94 738.018 32.1285 740.857 35.8682C743.696 39.6075 747.581 41.8763 751.832 41.8763C756.084 41.8763 759.969 39.6075 762.807 35.8682C765.646 32.1285 767.416 26.94 767.416 21.1882Z" fill="white" stroke="#EBEBFF"/>
<path d="M264.27 21.1881C264.27 23.3393 263.608 25.2681 262.56 26.6482C261.513 28.028 260.102 28.8374 258.584 28.8374C257.066 28.8374 255.655 28.028 254.608 26.6482C253.56 25.2681 252.898 23.3393 252.898 21.1881C252.898 19.0369 253.56 17.1081 254.608 15.728C255.655 14.3483 257.066 13.5388 258.584 13.5388C260.102 13.5388 261.513 14.3483 262.56 15.728C263.608 17.1081 264.27 19.0369 264.27 21.1881Z" fill="white" stroke="#EBEBFF"/>
<path d="M18.4711 402.575C18.4711 399.224 17.4393 396.208 15.7946 394.042C14.1501 391.875 11.9148 390.58 9.48554 390.58C7.05625 390.58 4.82095 391.875 3.1765 394.042C1.53179 396.208 0.5 399.224 0.5 402.575C0.5 405.927 1.53179 408.942 3.1765 411.108C4.82095 413.275 7.05625 414.571 9.48554 414.571C11.9148 414.571 14.1501 413.275 15.7946 411.108C17.4393 408.942 18.4711 405.927 18.4711 402.575Z" fill="white" stroke="#EBEBFF"/>
<path d="M158.516 118.436C156.508 124.633 156.064 131.409 157.283 137.275C158.502 143.14 161.283 147.615 165.015 149.714C168.747 151.813 173.124 151.364 177.183 148.467C181.242 145.57 184.651 140.461 186.659 134.265L158.516 118.436Z" fill="#6070FF"/>
<path d="M212.196 510.689C211.921 515.993 213.255 521.224 215.907 525.231C218.559 529.238 222.311 531.694 226.337 532.057C230.363 532.42 234.334 530.662 237.376 527.168C240.418 523.675 242.282 518.733 242.558 513.429L212.196 510.689Z" fill="#6070FF"/>
</svg>
