<svg width="1176" height="609" viewBox="0 0 1176 609" fill="none" xmlns="http://www.w3.org/2000/svg">
<path d="M952.988 96.9497C947.593 90.246 940.019 84.526 930.878 80.2526C921.738 75.9792 911.288 73.2726 900.375 72.352C889.463 71.4314 878.394 72.3226 868.065 74.9535C857.735 77.5844 848.437 81.8811 840.921 87.4956C833.405 93.11 827.884 99.8845 824.804 107.27C821.724 114.656 821.172 122.446 823.193 130.009C825.214 137.572 829.751 144.696 836.437 150.803C843.122 156.911 851.768 161.83 861.675 165.163L874.724 146.16C869.08 144.261 864.154 141.458 860.346 137.979C856.537 134.5 853.952 130.441 852.801 126.133C851.65 121.824 851.964 117.386 853.718 113.178C855.473 108.971 858.619 105.111 862.9 101.913C867.182 98.714 872.48 96.2662 878.364 94.7674C884.249 93.2686 890.555 92.7608 896.772 93.2853C902.988 93.8098 908.942 95.3517 914.149 97.7862C919.356 100.221 923.671 103.48 926.745 107.299L952.988 96.9497Z" fill="#6070FF"/>
<path d="M225.234 589.408C227.556 586.642 229.195 583.368 230.016 579.852C230.838 576.335 230.82 572.674 229.963 569.165C229.107 565.657 227.436 562.399 225.087 559.656C222.737 556.913 219.775 554.762 216.439 553.378C213.104 551.993 209.489 551.413 205.888 551.684C202.287 551.956 198.8 553.072 195.71 554.942C192.621 556.812 190.015 559.384 188.103 562.448C186.192 565.513 185.03 568.984 184.71 572.582L194.568 573.458C194.75 571.409 195.412 569.431 196.501 567.685C197.59 565.94 199.075 564.475 200.835 563.409C202.595 562.344 204.581 561.708 206.633 561.553C208.685 561.398 210.744 561.729 212.644 562.518C214.544 563.307 216.232 564.532 217.571 566.095C218.909 567.657 219.861 569.513 220.349 571.512C220.837 573.511 220.847 575.596 220.379 577.6C219.911 579.604 218.977 581.469 217.654 583.044L225.234 589.408Z" fill="#EBEBFF"/>
<rect x="784.434" y="88.236" width="125.083" height="24.4149" transform="rotate(-30 784.434 88.236)" fill="#EBEBFF"/>
<rect x="582.44" y="518" width="161.407" height="28.875" transform="rotate(23.34 582.44 518)" fill="#EBEBFF"/>
<rect width="56.0124" height="13.7192" transform="matrix(0.977401 -0.211395 -0.211395 -0.977401 458.9 72.2499)" fill="#6070FF"/>
<rect x="21.8027" y="106.829" width="82.9751" height="19.4403" transform="rotate(-46.1415 21.8027 106.829)" fill="#EBEBFF"/>
<circle cx="728.5" cy="551.5" r="23.5" fill="#6070FF"/>
<circle cx="484.5" cy="72.5" r="11.5" fill="#EBEBFF"/>
<circle cx="1138.5" cy="528.5" r="37" fill="white" stroke="#EBEBFF"/>
<circle cx="19.5" cy="19.5" r="19" transform="matrix(1 0 0 -1 892 39)" fill="white" stroke="#EBEBFF"/>
<circle cx="313.5" cy="19.5" r="7" fill="white" stroke="#EBEBFF"/>
<circle cx="11.5" cy="11.5" r="11" transform="matrix(1 0 0 -1 0 382)" fill="white" stroke="#EBEBFF"/>
<path d="M69.18 81C66.7452 86.7026 67.4329 93.4621 71.0916 99.7916C74.7504 106.121 81.0806 111.502 88.6896 114.751C96.2986 117.999 104.563 118.85 111.665 117.115C118.767 115.379 124.125 111.201 126.56 105.498L69.18 81Z" fill="#6070FF"/>
<path d="M210.261 541C209.926 545.881 211.545 550.695 214.76 554.383C217.975 558.071 222.524 560.331 227.405 560.666C232.286 561 237.1 559.381 240.788 556.166C244.476 552.951 246.736 548.403 247.07 543.521L210.261 541Z" fill="#6070FF"/>
</svg>
